# xmcd
#
# Track frame offsets: 
#        150
#        16100
#        32527
#        48913
#        65266
#
# Disc length: 1227 seconds
#
# Revision: 0
# Processed by: cddbd v1.5.2PL0 Copyright (c) Steve Scherf et al.
# Submitted via: ExactAudioCopy v1.3
#
DISCID=2f04c905
DTITLE=Cliff Grant - Life Can Be A Big Struggle
DYEAR=2018
DGENRE=Blues
TTITLE0=Life Can Be A Big Struggle
TTITLE1=Yesterday Blues
TTITLE2=New Generation
TTITLE3=Boogie Man Got My Baby
TTITLE4=Sweet Loven Woman
EXTD=
EXTT0=
EXTT1=
EXTT2=
EXTT3=
EXTT4=
PLAYORDER=
